<?xml version="1.0" encoding="iso-8859-1"?>
<!-- Generator: Adobe Illustrator 18.0.0, SVG Export Plug-In . SVG Version: 6.00 Build 0)  -->
<!DOCTYPE svg PUBLIC "-//W3C//DTD SVG 1.1//EN" "http://www.w3.org/Graphics/SVG/1.1/DTD/svg11.dtd">
<svg version="1.1" id="Capa_1" xmlns="http://www.w3.org/2000/svg" xmlns:xlink="http://www.w3.org/1999/xlink" x="0px" y="0px"
	 viewBox="0 0 119.453 119.453" style="enable-background:new 0 0 119.453 119.453;" xml:space="preserve">
<g>
	<g>
		<path style="fill:#FFC847;" d="M75.818,84.489c-0.206,0-0.413-0.064-0.588-0.191L59.726,73.034L44.222,84.298
			c-0.351,0.256-0.825,0.256-1.176,0c-0.351-0.254-0.497-0.706-0.363-1.117l5.922-18.227L33.101,53.689
			c-0.351-0.254-0.497-0.706-0.363-1.117c0.134-0.412,0.518-0.691,0.951-0.691h19.164l5.922-18.226
			c0.134-0.412,0.518-0.691,0.951-0.691c0.433,0,0.817,0.279,0.951,0.691l5.922,18.226h19.164c0.433,0,0.817,0.279,0.951,0.691
			c0.134,0.411-0.013,0.863-0.363,1.117L70.847,64.954l5.922,18.227c0.134,0.411-0.013,0.863-0.363,1.117
			C76.231,84.426,76.024,84.489,75.818,84.489z M59.726,70.798c0.206,0,0.413,0.063,0.588,0.191l13.602,9.882l-5.195-15.99
			c-0.134-0.411,0.013-0.863,0.363-1.117l13.602-9.883H65.873c-0.433,0-0.817-0.279-0.951-0.691L59.726,37.2l-5.195,15.989
			c-0.134,0.412-0.518,0.691-0.951,0.691H36.767l13.602,9.883c0.35,0.254,0.497,0.706,0.363,1.117l-5.195,15.99l13.602-9.882
			C59.314,70.861,59.52,70.798,59.726,70.798z"/>
	</g>
	<g>
		<g>
			<g>
				<g>
					<g>
						<g>
							<g>
								<path style="fill:#FFC847;" d="M59.726,9.133c-0.663,0-1.2-0.537-1.2-1.2V1.2c0-0.663,0.538-1.2,1.2-1.2
									c0.663,0,1.2,0.537,1.2,1.2v6.733C60.927,8.596,60.389,9.133,59.726,9.133z"/>
							</g>
						</g>
					</g>
				</g>
			</g>
			<g>
				<g>
					<g>
						<g>
							<g>
								<path style="fill:#FFC847;" d="M59.726,119.453c-0.663,0-1.2-0.537-1.2-1.2v-6.731c0-0.663,0.538-1.2,1.2-1.2
									c0.663,0,1.2,0.537,1.2,1.2v6.731C60.927,118.916,60.389,119.453,59.726,119.453z"/>
							</g>
						</g>
					</g>
				</g>
			</g>
		</g>
		<g>
			<g>
				<g>
					<g>
						<g>
							<g>
								<path style="fill:#FFC847;" d="M39.906,13.075c-0.471,0-0.918-0.279-1.109-0.741l-2.576-6.22
									c-0.253-0.612,0.038-1.314,0.65-1.567c0.61-0.256,1.314,0.037,1.568,0.649l2.576,6.22c0.253,0.612-0.038,1.314-0.65,1.567
									C40.215,13.046,40.059,13.075,39.906,13.075z"/>
							</g>
						</g>
					</g>
				</g>
			</g>
			<g>
				<g>
					<g>
						<g>
							<g>
								<path style="fill:#FFC847;" d="M82.124,114.998c-0.471,0-0.918-0.279-1.109-0.741l-2.576-6.22
									c-0.253-0.612,0.038-1.314,0.65-1.567c0.611-0.255,1.314,0.037,1.568,0.649l2.576,6.22c0.254,0.612-0.038,1.314-0.65,1.567
									C82.432,114.969,82.277,114.998,82.124,114.998z"/>
							</g>
						</g>
					</g>
				</g>
			</g>
		</g>
		<g>
			<g>
				<g>
					<g>
						<g>
							<g>
								<path style="fill:#FFC847;" d="M23.102,24.303c-0.307,0-0.614-0.117-0.849-0.352l-4.76-4.76
									c-0.469-0.469-0.469-1.229,0-1.697c0.469-0.469,1.229-0.469,1.697,0l4.76,4.76c0.468,0.469,0.469,1.229,0,1.697
									C23.717,24.186,23.41,24.303,23.102,24.303z"/>
							</g>
						</g>
					</g>
				</g>
			</g>
			<g>
				<g>
					<g>
						<g>
							<g>
								<path style="fill:#FFC847;" d="M101.111,102.312c-0.307,0-0.614-0.117-0.849-0.352l-4.76-4.761
									c-0.469-0.469-0.468-1.229,0-1.697c0.469-0.469,1.229-0.469,1.697,0l4.76,4.761c0.469,0.469,0.469,1.229,0,1.697
									C101.725,102.194,101.418,102.312,101.111,102.312z"/>
							</g>
						</g>
					</g>
				</g>
			</g>
		</g>
		<g>
			<g>
				<g>
					<g>
						<g>
							<g>
								<path style="fill:#FFC847;" d="M11.874,41.106c-0.153,0-0.309-0.029-0.459-0.092l-6.219-2.576
									c-0.612-0.253-0.903-0.955-0.649-1.567c0.253-0.612,0.955-0.904,1.568-0.649l6.219,2.576
									c0.612,0.253,0.903,0.955,0.649,1.567C12.792,40.827,12.345,41.106,11.874,41.106z"/>
							</g>
						</g>
					</g>
				</g>
			</g>
			<g>
				<g>
					<g>
						<g>
							<g>
								<path style="fill:#FFC847;" d="M113.797,83.324c-0.153,0-0.309-0.029-0.459-0.092l-6.219-2.576
									c-0.612-0.253-0.903-0.955-0.65-1.567c0.253-0.612,0.955-0.905,1.568-0.649l6.219,2.576c0.612,0.253,0.903,0.955,0.65,1.567
									C114.715,83.045,114.268,83.324,113.797,83.324z"/>
							</g>
						</g>
					</g>
				</g>
			</g>
		</g>
		<g>
			<g>
				<g>
					<g>
						<g>
							<g>
								<path style="fill:#FFC847;" d="M7.932,60.927H1.201c-0.663,0-1.2-0.537-1.2-1.2s0.538-1.2,1.2-1.2h6.732
									c0.663,0,1.2,0.537,1.2,1.2S8.595,60.927,7.932,60.927z"/>
							</g>
						</g>
					</g>
				</g>
			</g>
			<g>
				<g>
					<g>
						<g>
							<g>
								<path style="fill:#FFC847;" d="M118.253,60.927h-6.732c-0.663,0-1.2-0.537-1.2-1.2s0.538-1.2,1.2-1.2h6.732
									c0.663,0,1.2,0.537,1.2,1.2S118.915,60.927,118.253,60.927z"/>
							</g>
						</g>
					</g>
				</g>
			</g>
		</g>
		<g>
			<g>
				<g>
					<g>
						<g>
							<g>
								<path style="fill:#FFC847;" d="M5.656,83.324c-0.471,0-0.918-0.279-1.109-0.741c-0.253-0.612,0.038-1.314,0.649-1.567
									l6.219-2.576c0.612-0.256,1.314,0.037,1.568,0.649c0.253,0.612-0.038,1.314-0.649,1.567l-6.219,2.576
									C5.965,83.295,5.809,83.324,5.656,83.324z"/>
							</g>
						</g>
					</g>
				</g>
			</g>
			<g>
				<g>
					<g>
						<g>
							<g>
								<path style="fill:#FFC847;" d="M107.579,41.106c-0.471,0-0.917-0.279-1.109-0.741c-0.253-0.612,0.038-1.314,0.65-1.567
									l6.219-2.576c0.612-0.256,1.314,0.037,1.568,0.649c0.253,0.612-0.038,1.314-0.65,1.567l-6.219,2.576
									C107.887,41.077,107.732,41.106,107.579,41.106z"/>
							</g>
						</g>
					</g>
				</g>
			</g>
		</g>
		<g>
			<g>
				<g>
					<g>
						<g>
							<g>
								<path style="fill:#FFC847;" d="M18.342,102.312c-0.307,0-0.614-0.117-0.849-0.352c-0.469-0.469-0.469-1.229,0-1.697
									l4.76-4.761c0.469-0.469,1.229-0.469,1.697,0c0.468,0.469,0.469,1.229,0,1.697l-4.76,4.761
									C18.956,102.194,18.649,102.312,18.342,102.312z"/>
							</g>
						</g>
					</g>
				</g>
			</g>
			<g>
				<g>
					<g>
						<g>
							<g>
								<path style="fill:#FFC847;" d="M96.35,24.303c-0.307,0-0.614-0.117-0.849-0.352c-0.469-0.469-0.468-1.229,0-1.697l4.76-4.76
									c0.469-0.469,1.228-0.469,1.697,0c0.469,0.469,0.469,1.229,0,1.697l-4.76,4.76C96.965,24.186,96.658,24.303,96.35,24.303z"
									/>
							</g>
						</g>
					</g>
				</g>
			</g>
		</g>
		<g>
			<g>
				<g>
					<g>
						<g>
							<g>
								<path style="fill:#FFC847;" d="M37.329,114.998c-0.153,0-0.309-0.029-0.458-0.092c-0.612-0.253-0.903-0.955-0.65-1.567
									l2.576-6.22c0.253-0.612,0.956-0.904,1.568-0.649c0.612,0.253,0.903,0.955,0.65,1.567l-2.576,6.22
									C38.247,114.719,37.8,114.998,37.329,114.998z"/>
							</g>
						</g>
					</g>
				</g>
			</g>
			<g>
				<g>
					<g>
						<g>
							<g>
								<path style="fill:#FFC847;" d="M79.547,13.075c-0.153,0-0.309-0.029-0.459-0.092c-0.612-0.253-0.903-0.955-0.65-1.567
									l2.576-6.22c0.253-0.612,0.957-0.904,1.568-0.649c0.612,0.253,0.903,0.955,0.65,1.567l-2.576,6.22
									C80.465,12.796,80.017,13.075,79.547,13.075z"/>
							</g>
						</g>
					</g>
				</g>
			</g>
		</g>
	</g>
	<g>
		<g>
			<g>
				<g>
					<g>
						<g>
							<g>
								<path style="fill:#FFC847;" d="M59.726,23.292c-0.663,0-1.2-0.537-1.2-1.2V17.2c0-0.663,0.538-1.2,1.2-1.2
									c0.663,0,1.2,0.537,1.2,1.2v4.892C60.927,22.755,60.389,23.292,59.726,23.292z"/>
							</g>
						</g>
					</g>
				</g>
			</g>
			<g>
				<g>
					<g>
						<g>
							<g>
								<path style="fill:#FFC847;" d="M59.726,103.453c-0.663,0-1.2-0.537-1.2-1.2v-4.892c0-0.663,0.538-1.2,1.2-1.2
									c0.663,0,1.2,0.537,1.2,1.2v4.892C60.927,102.916,60.389,103.453,59.726,103.453z"/>
							</g>
						</g>
					</g>
				</g>
			</g>
		</g>
		<g>
			<g>
				<g>
					<g>
						<g>
							<g>
								<path style="fill:#FFC847;" d="M45.325,26.157c-0.471,0-0.918-0.279-1.109-0.741l-1.872-4.52
									c-0.254-0.612,0.038-1.314,0.65-1.567c0.611-0.256,1.313,0.037,1.568,0.649l1.872,4.52c0.253,0.612-0.038,1.314-0.65,1.567
									C45.634,26.128,45.478,26.157,45.325,26.157z"/>
							</g>
						</g>
					</g>
				</g>
			</g>
			<g>
				<g>
					<g>
						<g>
							<g>
								<path style="fill:#FFC847;" d="M76.001,100.216c-0.471,0-0.918-0.279-1.109-0.741l-1.872-4.519
									c-0.253-0.612,0.038-1.314,0.65-1.567c0.611-0.257,1.314,0.037,1.568,0.649l1.872,4.519c0.253,0.612-0.038,1.314-0.65,1.567
									C76.309,100.187,76.154,100.216,76.001,100.216z"/>
							</g>
						</g>
					</g>
				</g>
			</g>
		</g>
		<g>
			<g>
				<g>
					<g>
						<g>
							<g>
								<path style="fill:#FFC847;" d="M33.115,34.315c-0.307,0-0.614-0.117-0.849-0.352l-3.459-3.459
									c-0.469-0.469-0.469-1.229,0-1.697c0.469-0.469,1.228-0.469,1.697,0l3.459,3.459c0.469,0.469,0.469,1.229,0,1.697
									C33.729,34.198,33.422,34.315,33.115,34.315z"/>
							</g>
						</g>
					</g>
				</g>
			</g>
			<g>
				<g>
					<g>
						<g>
							<g>
								<path style="fill:#FFC847;" d="M89.797,90.997c-0.307,0-0.614-0.117-0.849-0.352l-3.459-3.458
									c-0.468-0.469-0.469-1.229,0-1.697c0.469-0.469,1.229-0.469,1.697,0l3.459,3.458c0.468,0.469,0.469,1.229,0,1.697
									C90.411,90.88,90.104,90.997,89.797,90.997z"/>
							</g>
						</g>
					</g>
				</g>
			</g>
		</g>
		<g>
			<g>
				<g>
					<g>
						<g>
							<g>
								<path style="fill:#FFC847;" d="M24.956,46.525c-0.153,0-0.309-0.029-0.459-0.092l-4.52-1.871
									c-0.612-0.253-0.903-0.955-0.65-1.567c0.253-0.611,0.956-0.903,1.568-0.649l4.519,1.871c0.612,0.253,0.903,0.955,0.65,1.567
									C25.874,46.245,25.428,46.525,24.956,46.525z"/>
							</g>
						</g>
					</g>
				</g>
			</g>
			<g>
				<g>
					<g>
						<g>
							<g>
								<path style="fill:#FFC847;" d="M99.015,77.201c-0.153,0-0.309-0.029-0.459-0.092l-4.519-1.872
									c-0.612-0.253-0.903-0.955-0.649-1.567c0.253-0.612,0.954-0.904,1.568-0.649l4.519,1.872
									c0.612,0.253,0.903,0.955,0.649,1.567C99.932,76.922,99.486,77.201,99.015,77.201z"/>
							</g>
						</g>
					</g>
				</g>
			</g>
		</g>
		<g>
			<g>
				<g>
					<g>
						<g>
							<g>
								<path style="fill:#FFC847;" d="M22.092,60.927h-4.892c-0.663,0-1.2-0.537-1.2-1.2s0.538-1.2,1.2-1.2h4.892
									c0.663,0,1.2,0.537,1.2,1.2S22.755,60.927,22.092,60.927z"/>
							</g>
						</g>
					</g>
				</g>
			</g>
			<g>
				<g>
					<g>
						<g>
							<g>
								<path style="fill:#FFC847;" d="M102.253,60.927h-4.892c-0.663,0-1.2-0.537-1.2-1.2s0.538-1.2,1.2-1.2h4.892
									c0.663,0,1.2,0.537,1.2,1.2S102.915,60.927,102.253,60.927z"/>
							</g>
						</g>
					</g>
				</g>
			</g>
		</g>
		<g>
			<g>
				<g>
					<g>
						<g>
							<g>
								<path style="fill:#FFC847;" d="M20.438,77.201c-0.471,0-0.917-0.279-1.109-0.741c-0.253-0.612,0.038-1.314,0.65-1.567
									l4.52-1.872c0.611-0.256,1.313,0.037,1.568,0.649c0.253,0.612-0.038,1.314-0.65,1.567l-4.519,1.872
									C20.746,77.172,20.591,77.201,20.438,77.201z"/>
							</g>
						</g>
					</g>
				</g>
			</g>
			<g>
				<g>
					<g>
						<g>
							<g>
								<path style="fill:#FFC847;" d="M94.497,46.525c-0.471,0-0.918-0.279-1.109-0.741c-0.253-0.612,0.038-1.314,0.65-1.567
									l4.519-1.871c0.612-0.254,1.314,0.038,1.568,0.649c0.253,0.612-0.038,1.314-0.65,1.567l-4.519,1.871
									C94.805,46.495,94.65,46.525,94.497,46.525z"/>
							</g>
						</g>
					</g>
				</g>
			</g>
		</g>
		<g>
			<g>
				<g>
					<g>
						<g>
							<g>
								<path style="fill:#FFC847;" d="M29.656,90.997c-0.307,0-0.614-0.117-0.849-0.352c-0.469-0.469-0.468-1.229,0-1.697
									l3.459-3.458c0.469-0.469,1.229-0.469,1.697,0c0.469,0.469,0.468,1.229,0,1.697l-3.459,3.458
									C30.27,90.88,29.963,90.997,29.656,90.997z"/>
							</g>
						</g>
					</g>
				</g>
			</g>
			<g>
				<g>
					<g>
						<g>
							<g>
								<path style="fill:#FFC847;" d="M86.338,34.315c-0.307,0-0.614-0.117-0.849-0.352c-0.469-0.469-0.469-1.229,0-1.697
									l3.459-3.459c0.469-0.469,1.229-0.469,1.697,0c0.469,0.469,0.469,1.229,0,1.697l-3.459,3.459
									C86.952,34.198,86.645,34.315,86.338,34.315z"/>
							</g>
						</g>
					</g>
				</g>
			</g>
		</g>
		<g>
			<g>
				<g>
					<g>
						<g>
							<g>
								<path style="fill:#FFC847;" d="M43.452,100.216c-0.153,0-0.309-0.029-0.459-0.092c-0.612-0.254-0.903-0.955-0.649-1.567
									l1.872-4.519c0.253-0.611,0.955-0.905,1.568-0.649c0.612,0.254,0.903,0.955,0.649,1.567l-1.872,4.519
									C44.369,99.937,43.923,100.216,43.452,100.216z"/>
							</g>
						</g>
					</g>
				</g>
			</g>
			<g>
				<g>
					<g>
						<g>
							<g>
								<path style="fill:#FFC847;" d="M74.128,26.157c-0.153,0-0.309-0.029-0.458-0.092c-0.612-0.253-0.903-0.955-0.65-1.567
									l1.872-4.52c0.253-0.612,0.956-0.905,1.568-0.649c0.612,0.253,0.903,0.955,0.65,1.567l-1.872,4.52
									C75.046,25.878,74.599,26.157,74.128,26.157z"/>
							</g>
						</g>
					</g>
				</g>
			</g>
		</g>
	</g>
</g>
<g>
</g>
<g>
</g>
<g>
</g>
<g>
</g>
<g>
</g>
<g>
</g>
<g>
</g>
<g>
</g>
<g>
</g>
<g>
</g>
<g>
</g>
<g>
</g>
<g>
</g>
<g>
</g>
<g>
</g>
</svg>
